<?xml version="1.0" encoding="UTF-8" standalone="no"?>
<svg width="32" height="32" viewBox="0 0 32 32" xmlns="http://www.w3.org/2000/svg">
  <!-- Simplified version of the logo for favicon -->
  <g id="speech-bubbles">
    <!-- First speech bubble (primary color) -->
    <path d="M16 4 C10 4, 5 8, 5 14 C5 20, 10 24, 16 24 L20 24 L18 28 L22 24 L26 24 C32 24, 37 20, 37 14 C37 8, 32 4, 26 4 Z" 
          fill="#0369a1" /> <!-- Primary-700 -->
    
    <!-- Second speech bubble (secondary color) -->
    <path d="M26 2 C32 2, 37 6, 37 12 C37 18, 32 22, 26 22 L20 22 L22 26 L18 22 L16 22 C10 22, 5 18, 5 12 C5 6, 10 2, 16 2 Z" 
          fill="#334155" fill-opacity="0.8" /> <!-- Secondary-700 with opacity -->
    
    <!-- African continent silhouette (stylized) -->
    <path d="M20 10 C21 9, 22 9.5, 23 10.5 C24 11, 24.5 10.5, 25 11.5 C26 12.5, 25.5 14, 26.5 14.5 C27 15.5, 26 16.5, 25.5 17.5 C24.5 18, 23.5 17.5, 22.5 18 C21.5 18.5, 20.5 17.5, 19.5 17 C18.5 16, 18 15, 18.5 14 C19 13, 18.5 12, 20 10 Z" 
          fill="#f0f9ff" /> <!-- Primary-50 (very light blue) -->
  </g>
</svg>
