<?xml version="1.0" encoding="UTF-8" standalone="no"?>
<svg width="200" height="60" viewBox="0 0 200 60" xmlns="http://www.w3.org/2000/svg">
  <!-- Speech bubbles representing translation -->
  <g id="speech-bubbles">
    <!-- First speech bubble (primary color) -->
    <path d="M40 10 C25 10, 15 20, 15 30 C15 40, 25 50, 40 50 L55 50 L50 60 L60 50 L70 50 C85 50, 95 40, 95 30 C95 20, 85 10, 70 10 Z" 
          fill="#0369a1" /> <!-- Primary-700 -->
    
    <!-- Second speech bubble (secondary color) -->
    <path d="M70 5 C85 5, 95 15, 95 25 C95 35, 85 45, 70 45 L55 45 L60 55 L50 45 L40 45 C25 45, 15 35, 15 25 C15 15, 25 5, 40 5 Z" 
          fill="#334155" fill-opacity="0.8" /> <!-- Secondary-700 with opacity -->
    
    <!-- African continent silhouette (stylized) -->
    <path d="M55 20 C57 18, 60 19, 62 21 C64 22, 65 21, 66 23 C68 25, 67 28, 69 29 C70 31, 68 33, 67 35 C65 36, 63 35, 61 36 C59 37, 57 35, 55 34 C53 32, 52 30, 53 28 C54 26, 53 24, 55 20 Z" 
          fill="#f0f9ff" /> <!-- Primary-50 (very light blue) -->
  </g>
  
  <!-- Transluga text -->
  <g id="text">
    <text x="105" y="30" font-family="Arial, sans-serif" font-weight="bold" font-size="22" text-anchor="start" fill="#0369a1">TRANS</text>
    <text x="105" y="30" font-family="Arial, sans-serif" font-weight="bold" font-size="22" text-anchor="start" dx="75" fill="#334155">LUGA</text>
    <text x="105" y="42" font-family="Arial, sans-serif" font-size="10" text-anchor="start" fill="#64748b">African Language Specialists</text>
  </g>
</svg>
