<?xml version="1.0" encoding="UTF-8" standalone="no"?>
<svg width="240" height="60" viewBox="0 0 240 60" xmlns="http://www.w3.org/2000/svg">
  <!-- Modern Wordmark with African Symbol Logo -->
  
  <!-- Adinkra Symbol (Stylized) - Represents Communication -->
  <g id="symbol">
    <circle cx="30" cy="30" r="24" fill="#0369a1" opacity="0.9" />
    
    <!-- Stylized African Symbol -->
    <path d="M30 12 C24 12, 18 16, 18 24 C18 32, 24 36, 30 36 C36 36, 42 32, 42 24 C42 16, 36 12, 30 12 Z" 
          fill="none" stroke="#f0f9ff" stroke-width="2" />
    
    <path d="M20 24 L40 24 M30 14 L30 34" 
          stroke="#f0f9ff" stroke-width="2" stroke-linecap="round" />
    
    <path d="M24 18 C27 21, 33 21, 36 18 M24 30 C27 27, 33 27, 36 30" 
          stroke="#f0f9ff" stroke-width="2" stroke-linecap="round" fill="none" />
  </g>
  
  <!-- Connecting Element -->
  <path d="M54 30 L70 30" stroke="#64748b" stroke-width="1.5" stroke-dasharray="2,2" />
  
  <!-- TRANSLUGA Text -->
  <g id="wordmark">
    <!-- TRANS in Primary Color -->
    <path d="M72 18 L100 18 M86 18 L86 42 M102 18 L114 42 M114 18 L102 42 M118 18 C118 18, 130 18, 130 26 C130 30, 126 32, 122 32 C126 32, 132 34, 132 42" 
          stroke="#0369a1" stroke-width="3" stroke-linecap="round" stroke-linejoin="round" fill="none" />
    
    <!-- LUGA in Secondary Color -->
    <path d="M136 18 L136 42 L148 42 M152 18 L152 42 C152 42, 164 42, 164 34 C164 26, 152 26, 152 26 M168 18 C168 18, 180 18, 180 26 C180 34, 168 34, 168 34 C168 34, 180 34, 180 42 M184 18 L184 42 L196 42 L196 30 L184 30" 
          stroke="#334155" stroke-width="3" stroke-linecap="round" stroke-linejoin="round" fill="none" />
  </g>
  
  <!-- Tagline -->
  <text x="72" y="52" font-family="Arial, sans-serif" font-size="10" font-weight="500" fill="#64748b">African Language Specialists</text>
</svg>
